<svg width="9" height="10" viewBox="0 0 9 10" fill="none" xmlns="http://www.w3.org/2000/svg">
<path d="M8.79822 8.02141L7.40832 6.63135C7.13147 6.35562 6.67301 6.36399 6.38653 6.65058L5.68628 7.35067C5.64204 7.32629 5.59625 7.30082 5.54811 7.2738C5.10591 7.02878 4.50069 6.69296 3.86383 6.05563C3.22507 5.41695 2.88894 4.8108 2.64317 4.36832C2.61724 4.32144 2.59239 4.27625 2.56785 4.23333L3.03782 3.76406L3.26887 3.53272C3.5558 3.24572 3.56371 2.78739 3.28751 2.51085L1.89761 1.12064C1.62141 0.84449 1.16274 0.852867 0.875815 1.13987L0.484091 1.53385L0.494796 1.54447C0.363446 1.71207 0.253686 1.90538 0.172005 2.11383C0.0967117 2.31225 0.0498342 2.5016 0.0283993 2.69133C-0.155129 4.21282 0.540148 5.60335 2.42704 7.49027C5.0353 10.0983 7.13721 9.90132 7.22789 9.8917C7.42538 9.8681 7.61465 9.82091 7.807 9.74621C8.01364 9.66549 8.20681 9.55588 8.37431 9.42481L8.38287 9.43242L8.77971 9.04382C9.06604 8.75687 9.07429 8.29838 8.79822 8.02141Z" fill="white"/>
</svg>
