<svg width="11" height="12" viewBox="0 0 11 12" fill="none" xmlns="http://www.w3.org/2000/svg">
<path d="M5.5 0.00927734C2.46718 0.00927734 0 2.47683 0 5.51012C0 8.5434 2.46718 11.011 5.5 11.011C8.53282 11.011 11 8.5434 11 5.51012C11 2.47683 8.53282 0.00927734 5.5 0.00927734ZM8.11572 8.35539C8.02634 8.44478 7.90902 8.48977 7.79169 8.48977C7.67437 8.48977 7.55696 8.44478 7.46767 8.35539L5.17597 6.06343C5.08978 5.97773 5.04169 5.86122 5.04169 5.73935V2.7597C5.04169 2.50621 5.24697 2.30132 5.5 2.30132C5.75303 2.30132 5.95831 2.50621 5.95831 2.7597V5.54957L8.11572 7.70723C8.2949 7.88652 8.2949 8.17618 8.11572 8.35539Z" fill="white"/>
</svg>
