<svg width="93" height="19" viewBox="0 0 93 19" fill="none" xmlns="http://www.w3.org/2000/svg">
<path d="M8.54894 2.92705C8.8483 2.00574 10.1517 2.00574 10.4511 2.92705L11.4084 5.87336C11.5422 6.28538 11.9262 6.56434 12.3594 6.56434H15.4574C16.4261 6.56434 16.8289 7.80395 16.0451 8.37336L13.5389 10.1943C13.1884 10.4489 13.0417 10.9003 13.1756 11.3123L14.1329 14.2586C14.4323 15.1799 13.3778 15.946 12.5941 15.3766L10.0878 13.5557C9.7373 13.3011 9.2627 13.3011 8.91221 13.5557L6.40594 15.3766C5.62222 15.946 4.56774 15.1799 4.8671 14.2586L5.82441 11.3123C5.95828 10.9003 5.81162 10.4489 5.46114 10.1943L2.95486 8.37335C2.17115 7.80395 2.57392 6.56434 3.54265 6.56434H6.64057C7.0738 6.56434 7.45776 6.28538 7.59163 5.87336L8.54894 2.92705Z" fill="#FFB800"/>
<path d="M27.0538 2.76646C27.3623 1.86462 28.6377 1.86462 28.9462 2.76646L30.0138 5.88795C30.1522 6.29251 30.5324 6.56434 30.96 6.56434H34.3013C35.2824 6.56434 35.6768 7.83003 34.8694 8.38734L32.2559 10.1912C31.8873 10.4456 31.7328 10.914 31.8778 11.3378L32.8966 14.3166C33.2086 15.229 32.1759 16.011 31.3823 15.4632L28.568 13.5208C28.2261 13.2847 27.7739 13.2847 27.432 13.5208L24.6177 15.4632C23.8241 16.011 22.7914 15.229 23.1034 14.3166L24.1222 11.3378C24.2672 10.914 24.1127 10.4456 23.7441 10.1912L21.1306 8.38733C20.3232 7.83003 20.7176 6.56434 21.6987 6.56434H25.04C25.4676 6.56434 25.8478 6.29251 25.9862 5.88795L27.0538 2.76646Z" fill="#FFB800"/>
<path d="M45.5489 2.92705C45.8483 2.00574 47.1517 2.00574 47.4511 2.92705L48.4084 5.87336C48.5422 6.28538 48.9262 6.56434 49.3594 6.56434H52.4574C53.4261 6.56434 53.8289 7.80395 53.0451 8.37336L50.5389 10.1943C50.1884 10.4489 50.0417 10.9003 50.1756 11.3123L51.1329 14.2586C51.4323 15.1799 50.3778 15.946 49.5941 15.3766L47.0878 13.5557C46.7373 13.3011 46.2627 13.3011 45.9122 13.5557L43.4059 15.3766C42.6222 15.946 41.5677 15.1799 41.8671 14.2586L42.8244 11.3123C42.9583 10.9003 42.8116 10.4489 42.4611 10.1943L39.9549 8.37335C39.1711 7.80395 39.5739 6.56434 40.5426 6.56434H43.6406C44.0738 6.56434 44.4578 6.28538 44.5916 5.87336L45.5489 2.92705Z" fill="#FFB800"/>
<path d="M64.0538 2.76646C64.3623 1.86462 65.6377 1.86462 65.9462 2.76646L67.0138 5.88795C67.1522 6.29251 67.5324 6.56434 67.96 6.56434H71.3013C72.2824 6.56434 72.6768 7.83003 71.8694 8.38734L69.2559 10.1912C68.8873 10.4456 68.7328 10.914 68.8778 11.3378L69.8966 14.3166C70.2086 15.229 69.1759 16.011 68.3823 15.4632L65.568 13.5208C65.2261 13.2847 64.7739 13.2847 64.432 13.5208L61.6177 15.4632C60.8241 16.011 59.7914 15.229 60.1034 14.3166L61.1222 11.3378C61.2672 10.914 61.1127 10.4456 60.7441 10.1912L58.1306 8.38733C57.3232 7.83003 57.7176 6.56434 58.6987 6.56434H62.04C62.4676 6.56434 62.8478 6.29251 62.9862 5.88795L64.0538 2.76646Z" fill="#FFB800"/>
<path d="M82.5489 2.92705C82.8483 2.00574 84.1517 2.00574 84.4511 2.92705L85.4084 5.87336C85.5422 6.28538 85.9262 6.56434 86.3594 6.56434H89.4574C90.4261 6.56434 90.8289 7.80395 90.0451 8.37336L87.5389 10.1943C87.1884 10.4489 87.0417 10.9003 87.1756 11.3123L88.1329 14.2586C88.4323 15.1799 87.3778 15.946 86.5941 15.3766L84.0878 13.5557C83.7373 13.3011 83.2627 13.3011 82.9122 13.5557L80.4059 15.3766C79.6222 15.946 78.5677 15.1799 78.8671 14.2586L79.8244 11.3123C79.9583 10.9003 79.8116 10.4489 79.4611 10.1943L76.9549 8.37335C76.1711 7.80395 76.5739 6.56434 77.5426 6.56434H80.6406C81.0738 6.56434 81.4578 6.28538 81.5916 5.87336L82.5489 2.92705Z" fill="#E1E1E1"/>
</svg>
