<svg width="48" height="67" viewBox="0 0 48 67" fill="none" xmlns="http://www.w3.org/2000/svg">
<path d="M0 23.9999C0 10.7663 10.7663 0 24 0C37.2335 0 47.9997 10.7663 48 23.9999C48 40.4231 26.5224 64.5334 25.6079 65.5518C24.7506 66.5067 23.251 66.5084 22.3921 65.5518C21.4776 64.5334 0 40.4231 0 23.9999Z" fill="#CA0100"/>
<path d="M27.2652 13.7039C30.112 19.8998 32.9818 26.0957 35.8516 32.3371C35.9434 32.246 36.0123 32.1777 36.0812 32.1093C36.9306 30.8337 37.5505 29.4897 37.9637 28.0091C38.3311 26.7107 38.5147 25.3895 38.4688 24.0683C38.3999 21.016 37.4357 18.2369 35.5761 15.7996C34.4741 14.3417 33.1195 13.1572 31.5584 12.2233C30.3416 11.4944 29.0329 10.9249 27.6095 10.6288C27.38 10.5832 27.1504 10.5376 26.9208 10.4921C26.7601 10.4465 26.6682 10.5149 26.5994 10.6515C26.0025 11.8133 25.4055 12.975 24.8086 14.1595C23.7755 16.1868 22.7424 18.1914 21.7322 20.2187C20.9516 21.7449 20.171 23.2939 19.3905 24.82C18.4721 26.6196 17.5538 28.4419 16.6125 30.2414C15.9467 31.5626 15.2809 32.8838 14.5922 34.205C14.4774 34.4328 14.5003 34.5694 14.707 34.7289C15.1202 35.0478 15.5335 35.3895 15.9237 35.7084C16.0615 35.8223 16.1304 35.7995 16.2222 35.6401C16.888 34.3189 17.5308 32.9977 18.1966 31.6765C19.115 29.8314 20.0562 27.9635 20.9746 26.1185C21.8929 24.2506 22.8342 22.4055 23.7525 20.5376C24.7397 18.5786 25.727 16.6196 26.6912 14.6379C26.8519 14.3189 26.9897 14.0228 27.1504 13.7039C27.2192 13.7039 27.2422 13.7039 27.2652 13.7039Z" fill="white"/>
<path d="M12.8714 32.4047C13.0551 32.0631 13.2158 31.7442 13.3995 31.4025C14.6392 28.9423 15.879 26.4822 17.1187 24.0449C18.1977 21.9036 19.2538 19.7624 20.3329 17.6212C21.4119 15.4572 22.5139 13.2932 23.5929 11.1064C23.7077 10.9014 23.8225 10.6736 23.9144 10.4686C24.0062 10.2636 23.9603 10.1725 23.7307 10.218C22.8812 10.3319 22.0088 10.4003 21.1594 10.5825C18.9324 11.0609 16.981 12.0631 15.2361 13.4982C13.4913 14.9333 12.1827 16.71 11.2873 18.7829C10.7592 20.013 10.4149 21.2886 10.2542 22.6098C10.1164 23.9538 10.1164 25.2749 10.346 26.6189C10.6445 28.3956 11.2643 30.0357 12.1827 31.5619C12.3204 31.8125 12.4811 32.0403 12.6418 32.2681C12.6877 32.3364 12.7107 32.4047 12.7337 32.4731C12.8025 32.4503 12.8485 32.4275 12.8714 32.4047Z" fill="white"/>
<path d="M33.4644 34.0451C32.7986 32.61 32.1328 31.1522 31.4671 29.6943H22.0771C21.5261 30.7877 20.9521 31.8811 20.4241 32.9973C19.8272 34.2046 19.2762 35.4346 18.7022 36.6647C18.5415 37.0064 18.5874 37.0519 18.9318 37.1658C19.6665 37.3936 20.3782 37.667 21.1358 37.8264C22.5133 38.1453 23.9138 38.2364 25.3372 38.077C25.98 38.0087 26.6228 37.9631 27.2427 37.8036C28.1611 37.5531 29.0794 37.2342 29.9748 36.8469C31.2375 36.3002 32.3395 35.503 33.3496 34.6146C33.5103 34.4096 33.5792 34.2957 33.4644 34.0451Z" fill="white"/>
<path d="M30.3157 27.1656C29.8107 26.0267 29.2826 24.9105 28.7775 23.7715C28.2495 22.6326 27.7444 21.5164 27.2164 20.3775C27.1705 20.2636 27.1016 20.1497 27.0097 19.9902C26.7802 20.423 26.5965 20.7875 26.4128 21.152C26.2292 21.5164 26.0455 21.9037 25.8389 22.2681C25.0124 23.9082 24.1859 25.5483 23.3594 27.1656H30.3157Z" fill="white"/>
</svg>
