<svg width="9" height="12" viewBox="0 0 9 12" fill="none" xmlns="http://www.w3.org/2000/svg">
<path d="M4.49941 0.015625C2.30274 0.015625 0.515625 1.80301 0.515625 4C0.515625 6.72652 4.08072 10.7292 4.23251 10.8983C4.37508 11.0571 4.624 11.0568 4.76631 10.8983C4.9181 10.7292 8.48319 6.72652 8.48319 4C8.48315 1.80301 6.69606 0.015625 4.49941 0.015625ZM4.49941 6.00464C3.39421 6.00464 2.49509 5.10536 2.49509 4C2.49509 2.89463 3.39423 1.99537 4.49941 1.99537C5.60459 1.99537 6.50371 2.89465 6.50371 4.00002C6.50371 5.10539 5.60459 6.00464 4.49941 6.00464Z" fill="white"/>
</svg>
