<svg width="139" height="147" viewBox="0 0 139 147" fill="none" xmlns="http://www.w3.org/2000/svg">
<path d="M74.0338 18.9719C90.5313 54.8771 107.162 90.7823 123.792 126.952C124.324 126.424 124.724 126.028 125.123 125.632C130.045 118.239 133.637 110.451 136.032 101.871C138.161 94.3465 139.225 86.6902 138.959 79.034C138.56 61.3454 132.972 45.2408 122.196 31.1163C115.81 22.668 107.96 15.8038 98.913 10.3916C91.8617 6.16748 84.2782 2.86737 76.0295 1.15131C74.699 0.887303 73.3686 0.623294 72.0382 0.359285C71.1068 0.0952757 70.5747 0.491289 70.1755 1.28332C66.7164 8.01554 63.2573 14.7478 59.7981 21.612C53.8111 33.3604 47.8242 44.9768 41.9702 56.7252C37.4467 65.5695 32.9233 74.5458 28.3998 83.3901C23.078 93.8185 17.7563 104.379 12.3015 114.807C8.44318 122.463 4.58491 130.12 0.593591 137.776C-0.0716281 139.096 0.0614158 139.888 1.25881 140.812C3.6536 142.66 6.04839 144.64 8.31014 146.488C9.1084 147.148 9.50753 147.016 10.0397 146.092C13.898 138.436 17.6232 130.78 21.4815 123.123C26.8032 112.431 32.258 101.607 37.5798 90.9144C42.9015 80.09 48.3563 69.3976 53.6781 58.5733C59.399 47.2209 65.1199 35.8685 70.7077 24.3841C71.639 22.536 72.4373 20.82 73.3686 18.9719C73.7677 18.9719 73.9008 18.9719 74.0338 18.9719Z" fill="#737373"/>
</svg>
